# xmcd CD database file
#
# Track frame offsets:
#	150
#	12216
#	26043
#	37912
#	49761
#	60314
#	70841
#	81791
#	92328
#	102133
#
# Disc length: 1481 seconds
#
# Revision: 0
# Processed by: cddbd v1.5.2PL0 Copyright (c) Steve Scherf et al.
# Submitted via: cdripper 1,0,33,916
#
DISCID=6b05c70a
DTITLE=Skeeter davis - The End Of The World
DYEAR=1960
DGENRE=Country
TTITLE0=The End Of The World
TTITLE1=I Forgot More Than You'll Ever Know
TTITLE2=What Does It take To Keep A Man Like You Satisfied
TTITLE3=I Can't Help You, I'm Falling Too
TTITLE4=Set Him Free
TTITLE5=My Last Date With You
TTITLE6=Gonna Get Along Without You Now
TTITLE7=I'm A Lover Not A Fighter
TTITLE8=I Can't Stay Mad At You
TTITLE9=Am I That Easy To Forget
EXTD=YEAR: 1960
EXTT0=
EXTT1=
EXTT2=
EXTT3=
EXTT4=
EXTT5=
EXTT6=
EXTT7=
EXTT8=
EXTT9=
PLAYORDER=
